<svg width="87" height="87" viewBox="0 0 87 87" fill="none" xmlns="http://www.w3.org/2000/svg">
<circle cx="43.5" cy="43.5" r="43.5" fill="#FFEDB5"/>
<path d="M31.6226 41.4249C31.6226 36.8571 35.3255 33.1542 39.8933 33.1542C40.8849 33.1542 41.8352 33.3298 42.7161 33.65C42.7996 33.1365 42.8448 32.6102 42.8448 32.0732C42.8448 26.6835 38.4755 22.3143 33.0859 22.3143C27.6963 22.3143 23.3271 26.6835 23.3271 32.0732C23.3271 36.9681 26.9312 41.0205 31.6302 41.7234C31.6265 41.6243 31.6226 41.5251 31.6226 41.4249Z" fill="#FEE187"/>
<path d="M61.2835 41.3667C61.602 40.3515 61.7626 39.2965 61.7626 38.2154C61.7626 32.3883 57.022 27.6474 51.1948 27.6474C48.5014 27.6474 45.96 28.6719 44.0377 30.4408C43.2461 25.1063 38.637 21 33.0859 21C26.9801 21 22.0127 25.9674 22.0127 32.0732C22.0127 34.742 22.9757 37.32 24.7244 39.3323C26.2452 41.0826 28.2704 42.3064 30.5016 42.8412C30.7443 43.2962 31.2438 43.5847 31.7876 43.5324C32.5102 43.463 33.0395 42.8209 32.9702 42.0983C32.9567 41.9578 32.9488 41.8189 32.9435 41.6814C32.9435 41.6789 32.9437 41.6765 32.9436 41.6742C32.9406 41.5914 32.937 41.5086 32.937 41.4251C32.937 37.5894 36.0575 34.4688 39.8933 34.4688C40.0052 34.4688 40.1164 34.472 40.2271 34.4772C40.2624 34.4789 40.2976 34.4818 40.3329 34.4841C40.4086 34.4888 40.4841 34.4942 40.5591 34.5013C40.5996 34.5051 40.6398 34.5098 40.6801 34.5145C40.7504 34.5225 40.8202 34.5312 40.8898 34.5412C40.9305 34.5471 40.9711 34.5534 41.0116 34.5599C41.0813 34.5712 41.1505 34.5838 41.2195 34.597C41.2582 34.6045 41.297 34.6119 41.3355 34.6201C41.4091 34.6357 41.482 34.6529 41.5546 34.6708C41.5873 34.6788 41.6202 34.6862 41.6528 34.6947C41.7446 34.7188 41.8356 34.7448 41.926 34.7724C41.9377 34.7759 41.9495 34.779 41.9612 34.7827C41.9669 34.7843 41.9726 34.7864 41.9782 34.7883C42.0801 34.8204 42.1814 34.8544 42.2814 34.891C42.2841 34.8919 42.2867 34.8931 42.2893 34.894C44.948 35.8726 46.8494 38.4307 46.8494 41.4249C46.8494 42.1508 47.438 42.7393 48.1638 42.7393C48.8896 42.7393 49.4783 42.1509 49.4783 41.4249C49.4783 38.0003 47.6717 34.9912 44.9629 33.2958C46.455 31.407 48.7413 30.2763 51.1947 30.2763C55.5723 30.2763 59.1337 33.8379 59.1337 38.2155C59.1337 39.3782 58.8864 40.5008 58.3984 41.552C58.2358 41.9025 58.2356 42.307 58.3979 42.6577C58.5603 43.0083 58.8688 43.2697 59.2412 43.3724C61.0764 43.8783 62.358 45.5623 62.358 47.4675C62.358 49.8104 60.452 51.7163 58.1092 51.7163H33.5219C31.1792 51.7163 29.2731 49.8103 29.2731 47.4675C29.2731 46.7416 28.6845 46.1531 27.9587 46.1531C27.2329 46.1531 26.6443 46.7415 26.6443 47.4675C26.6443 51.2599 29.7296 54.3451 33.5219 54.3451H58.1095C61.9019 54.3451 64.9871 51.2598 64.9871 47.4675C64.987 44.8733 63.5187 42.5324 61.2835 41.3667ZM24.6414 32.0732C24.6414 27.4169 28.4296 23.6287 33.0859 23.6287C37.7108 23.6287 41.4789 27.3661 41.5297 31.9793C41.483 31.9713 41.4361 31.9647 41.3892 31.9573C41.366 31.9536 41.343 31.9499 41.3199 31.9465C41.2631 31.938 41.2062 31.9297 41.1491 31.9223C41.1226 31.9188 41.096 31.916 41.0695 31.9128C40.9709 31.9006 40.8721 31.89 40.773 31.8811C40.7358 31.8777 40.6986 31.8745 40.6612 31.8715C40.5871 31.8657 40.5127 31.8607 40.4382 31.8566C40.4089 31.8549 40.3797 31.8531 40.3504 31.8518C40.3247 31.8506 40.2991 31.8493 40.2735 31.8483C40.147 31.8434 40.0203 31.8403 39.8933 31.8403C39.7347 31.8403 39.5774 31.8446 39.4208 31.8522C39.3688 31.8547 39.3176 31.8597 39.2659 31.863C39.1617 31.8699 39.0576 31.8767 38.9542 31.8868C38.8929 31.8929 38.8321 31.9011 38.7712 31.9081C38.6783 31.919 38.5855 31.9299 38.4936 31.9434C38.4293 31.9529 38.3657 31.9641 38.3018 31.9748C38.2142 31.9895 38.1265 32.0046 38.0396 32.0217C37.9746 32.0345 37.9102 32.0486 37.8457 32.0628C37.761 32.0813 37.6767 32.1005 37.5928 32.1212C37.5281 32.1372 37.4639 32.1539 37.3997 32.1713C37.317 32.1937 37.2349 32.217 37.153 32.2416C37.0896 32.2605 37.0263 32.2798 36.9635 32.3C36.882 32.3263 36.8012 32.3541 36.7208 32.3823C36.6592 32.404 36.5977 32.4254 36.5369 32.4483C36.4555 32.4788 36.3751 32.5112 36.2947 32.544C36.2363 32.5676 36.1779 32.5908 36.1201 32.6156C36.0365 32.6515 35.9543 32.6897 35.872 32.728C35.8192 32.7526 35.7658 32.776 35.7136 32.8015C35.6203 32.847 35.5285 32.8951 35.4369 32.9435C35.3972 32.9644 35.3569 32.984 35.3175 33.0053C35.1883 33.0758 35.0609 33.1491 34.9354 33.2252C34.9004 33.2464 34.8668 33.2693 34.8322 33.291C34.7415 33.3477 34.6512 33.4045 34.5624 33.4639C34.5139 33.4966 34.4669 33.5308 34.419 33.5642C34.3458 33.6154 34.2727 33.6664 34.2011 33.7194C34.1502 33.7571 34.1004 33.7963 34.0504 33.835C33.9838 33.8864 33.9175 33.9377 33.8523 33.9908C33.8014 34.0322 33.7515 34.0748 33.7015 34.1172C33.6392 34.1702 33.5772 34.2233 33.5162 34.2778C33.4665 34.3222 33.4175 34.3675 33.3687 34.4128C33.3095 34.4679 33.2509 34.5236 33.1933 34.5802C33.1454 34.6269 33.098 34.6743 33.0511 34.7221C32.9946 34.7798 32.9389 34.8384 32.8838 34.8975C32.8384 34.9463 32.793 34.9952 32.7485 35.045C32.6941 35.1058 32.6409 35.1679 32.588 35.2302C32.5456 35.2803 32.5029 35.3301 32.4613 35.3809C32.4082 35.4461 32.357 35.5126 32.3054 35.5791C32.2667 35.6292 32.2273 35.6789 32.1896 35.7298C32.136 35.8022 32.0845 35.8762 32.0328 35.9502C32 35.9971 31.9662 36.0433 31.9342 36.0908C31.87 36.1865 31.8083 36.284 31.7473 36.3819C31.7302 36.4094 31.712 36.4361 31.6951 36.4638C31.6192 36.5887 31.5463 36.7156 31.4761 36.8442C31.4507 36.891 31.4271 36.939 31.4023 36.9862C31.3582 37.0704 31.3139 37.1546 31.2721 37.2401C31.245 37.2955 31.22 37.3521 31.194 37.4082C31.1574 37.4873 31.1207 37.5663 31.0861 37.6465C31.0603 37.7062 31.0364 37.7667 31.0118 37.8271C30.98 37.9054 30.9484 37.9838 30.9187 38.063C30.8953 38.1254 30.873 38.1885 30.8508 38.2516C30.823 38.3305 30.796 38.4096 30.7702 38.4894C30.7495 38.5536 30.7296 38.6182 30.7103 38.6831C30.6862 38.7635 30.6632 38.8443 30.6413 38.9256C30.6237 38.9908 30.6065 39.0562 30.5901 39.1219C30.5696 39.2046 30.5507 39.2877 30.5324 39.3711C30.518 39.4366 30.5035 39.5022 30.4905 39.5684C30.4736 39.6543 30.4587 39.741 30.4441 39.8278C30.4332 39.8924 30.4218 39.9568 30.4122 40.0218C30.4093 40.0414 30.4054 40.0606 30.4026 40.0803C27.0352 38.9445 24.6414 35.7252 24.6414 32.0732Z" fill="#FFC61B"/>
<path d="M48.3063 62.0544C48.1087 62.0544 47.9083 62.0098 47.7195 61.9154C47.0703 61.5907 46.8071 60.8012 47.1316 60.1519L48.4249 57.5656C48.7495 56.9164 49.5385 56.6531 50.1884 56.9778C50.8376 57.3025 51.1007 58.092 50.7762 58.7413L49.483 61.3276C49.2527 61.7881 48.7885 62.0544 48.3063 62.0544Z" fill="#FFC61B"/>
<path d="M56.1808 66C55.9832 66 55.7828 65.9554 55.594 65.861C54.9448 65.5363 54.6817 64.7468 55.0062 64.0975L56.2994 61.5112C56.624 60.862 57.4132 60.5988 58.0629 60.9234C58.7121 61.248 58.9752 62.0376 58.6507 62.6869L57.3575 65.2732C57.1272 65.7337 56.663 66 56.1808 66Z" fill="#FFC61B"/>
<path d="M40.4321 66C40.2345 66 40.0341 65.9554 39.8453 65.861C39.196 65.5363 38.9328 64.7468 39.2574 64.0975L40.5505 61.5112C40.8751 60.862 41.6646 60.5988 42.3138 60.9234C42.9631 61.2479 43.2263 62.0376 42.9017 62.6869L41.6087 65.2732C41.3785 65.7337 40.9142 66 40.4321 66Z" fill="#FFC61B"/>
<path d="M32.5576 62.0544C32.36 62.0544 32.1596 62.0098 31.9708 61.9154C31.3215 61.5907 31.0583 60.8012 31.3829 60.1519L32.676 57.5656C33.0006 56.9164 33.7901 56.6531 34.4393 56.9778C35.0886 57.3025 35.3518 58.092 35.0272 58.7413L33.7342 61.3276C33.5039 61.7881 33.0397 62.0544 32.5576 62.0544Z" fill="#FFC61B"/>
</svg>
