<svg width="249" height="55" viewBox="0 0 249 55" fill="none" xmlns="http://www.w3.org/2000/svg">
<g clip-path="url(#clip0_2_168)">
<path d="M37.35 13.5221H43.7268V43.1492H37.35V13.5221Z" fill="white"/>
<path d="M65.5902 38.1354C69.0823 38.1354 71.8152 36.4641 73.1817 34.489L78.4957 37.5276C75.7628 41.6299 71.3598 44.0608 65.5902 44.0608C55.8732 44.0608 49.4963 37.3757 49.4963 28.4116C49.4963 19.5995 55.8732 12.7625 65.1348 12.7625C73.9409 12.7625 80.014 19.9033 80.014 28.4116C80.014 29.3232 79.8622 30.2348 79.7104 31.1464H56.1768C57.2396 35.7044 60.8835 38.1354 65.5902 38.1354ZM73.4854 25.8287C72.5744 20.663 68.9305 18.5359 64.9829 18.5359C60.1244 18.5359 56.936 21.4227 56.025 25.8287H73.4854Z" fill="white"/>
<path d="M171.871 38.1354C175.363 38.1354 178.096 36.4641 179.462 34.489L184.776 37.5276C182.043 41.6299 177.64 44.0608 171.871 44.0608C162.154 44.0608 155.777 37.3757 155.777 28.4116C155.777 19.5995 162.154 12.7625 171.415 12.7625C180.221 12.7625 186.295 19.9033 186.295 28.4116C186.295 29.3232 186.143 30.2348 185.991 31.1464H162.457C163.52 35.7044 167.164 38.1354 171.871 38.1354ZM179.766 25.8287C178.855 20.663 175.211 18.5359 171.263 18.5359C166.405 18.5359 163.216 21.4227 162.306 25.8287H179.766Z" fill="#119239"/>
<path d="M108.862 4.40607V17.7762C106.584 14.7376 103.092 12.7624 98.5373 12.7624C90.4903 12.7624 83.8098 19.4475 83.8098 28.4116C83.8098 37.2238 90.4903 44.0608 98.5373 44.0608C103.092 44.0608 106.584 42.2376 108.862 39.047V43.3011H115.238V1.67126L108.862 4.40607ZM99.6001 37.8315C94.286 37.8315 90.1866 33.8812 90.1866 28.4116C90.1866 22.942 94.286 18.9917 99.6001 18.9917C104.914 18.9917 109.013 22.942 109.013 28.4116C108.862 33.8812 104.914 37.8315 99.6001 37.8315Z" fill="white"/>
<path d="M145.604 4.40607V17.7762C143.327 14.7376 139.835 12.7624 135.28 12.7624C127.233 12.7624 120.552 19.4475 120.552 28.4116C120.552 37.2238 127.233 44.0608 135.28 44.0608C139.835 44.0608 143.327 42.2376 145.604 39.047V43.3011H151.981V1.67126L145.604 4.40607ZM136.191 37.8315C130.877 37.8315 126.777 33.8812 126.777 28.4116C126.777 22.942 130.877 18.9917 136.191 18.9917C141.505 18.9917 145.604 22.942 145.604 28.4116C145.604 33.8812 141.505 37.8315 136.191 37.8315Z" fill="#119239"/>
<path d="M6.37683 52.4171V39.047C8.65427 42.0857 12.1463 44.0608 16.7012 44.0608C24.7482 44.0608 31.4287 37.3757 31.4287 28.4116C31.4287 19.5995 24.7482 12.7625 16.7012 12.7625C12.1463 12.7625 8.65427 14.5857 6.37683 17.7763V13.5221H0V55L6.37683 52.4171ZM15.7902 18.8398C21.1043 18.8398 25.2037 22.7901 25.2037 28.2597C25.2037 33.7293 21.1043 37.6796 15.7902 37.6796C10.4762 37.6796 6.37683 33.7293 6.37683 28.2597C6.37683 22.942 10.4762 18.8398 15.7902 18.8398Z" fill="white"/>
<path d="M190.09 28.4116C190.09 19.5995 196.771 12.7625 205.729 12.7625C211.498 12.7625 216.508 15.8011 218.938 20.3591L213.472 23.5497C212.105 20.8149 209.221 18.9917 205.729 18.9917C200.566 18.9917 196.619 22.942 196.619 28.2597C196.619 33.5774 200.566 37.5276 205.729 37.5276C209.221 37.5276 212.105 35.7044 213.624 32.9696L219.09 36.1602C216.66 40.8702 211.65 43.9089 205.729 43.9089C196.771 43.9089 190.09 37.0718 190.09 28.4116Z" fill="#119239"/>
<path d="M235.487 28.1077L248.393 13.5221H240.649L229.11 26.5884V1.67126L222.734 4.40607V43.1492H229.11V29.4751L241.257 43.1492H249L235.487 28.1077Z" fill="#119239"/>
<path d="M46.5786 -2.97809e-05L31 6.53284L33.1327 11.6628L48.7113 5.12991L46.5786 -2.97809e-05Z" fill="#119239"/>
</g>
<defs>
<clipPath id="clip0_2_168">
<rect width="249" height="55" fill="white"/>
</clipPath>
</defs>
</svg>
