<svg width="86" height="52" viewBox="0 0 86 52" fill="none" xmlns="http://www.w3.org/2000/svg">
<path d="M61.1773 52C70.3537 52 85.6473 30.5877 85.6473 30.5877H61.0445C59.7631 15.3029 48.941 15.2939 48.941 15.2939H27.5287V6.11742H24.4697V15.2939H21.4106V0H18.3516V15.2939H12.2342L9.68591 30.5877H0L9.17645 52H61.1758H61.1773ZM14.8264 18.3536H48.9415C49.4523 18.3689 52.3154 18.5955 54.7076 21.4126L42.824 21.412V27.5294H57.5034C57.7082 28.462 57.883 29.4568 57.9867 30.5884H12.7894L14.8264 18.3536ZM9.17678 33.6474H79.4619C78.6329 34.6658 77.7675 35.6907 76.8836 36.7065H58.1178V39.7655H74.0972C69.2799 44.8402 64.266 48.9419 61.1768 48.9419H11.193L4.63771 33.6481L9.17678 33.6474Z" fill="#858585"/>
<path d="M30.5886 21.4113H36.706V27.5287H30.5886V21.4113Z" fill="#858585"/>
<path d="M52.001 36.7065H55.06V39.7655H52.001V36.7065Z" fill="#858585"/>
</svg>
