<svg width="59" height="66" viewBox="0 0 59 66" fill="none" xmlns="http://www.w3.org/2000/svg">
<path d="M57.0893 45.7093C54.0545 45.7093 52.5011 47.4157 51.2593 48.7903C50.0175 50.165 49.3867 50.7824 47.8861 50.7824C46.3855 50.7824 45.7013 50.1182 44.5129 48.7903C43.3244 47.4624 41.7177 45.7093 38.6829 45.7093C35.6482 45.7093 34.1012 47.4157 32.853 48.7903C31.6048 50.1649 30.9804 50.7824 29.4867 50.7824C27.9924 50.7824 27.3019 50.1182 26.1203 48.7903C24.9383 47.4624 23.3251 45.7093 20.2904 45.7093C17.2557 45.7093 15.7087 47.4157 14.4605 48.7903C13.2123 50.1649 12.5879 50.7824 11.0941 50.7824C9.59985 50.7824 8.91629 50.1182 7.72773 48.7903C6.53881 47.4624 4.93205 45.7093 1.91073 45.7093C0.994116 45.7093 0.250732 46.4527 0.250732 47.3693C0.250732 48.2859 0.994116 49.0293 1.91073 49.0293C3.40497 49.0293 4.08854 49.6935 5.2771 51.0214C6.46554 52.3493 8.0723 54.1024 11.1005 54.1024C14.1282 54.1024 15.6822 52.396 16.9304 51.0214C18.1786 49.6467 18.803 49.0293 20.2968 49.0293C21.791 49.0293 22.4816 49.6935 23.6631 51.0214C24.8452 52.3493 26.4583 54.1024 29.4931 54.1024C32.5278 54.1024 34.0748 52.396 35.323 51.0214C36.5712 49.6468 37.1956 49.0293 38.6893 49.0293C40.1836 49.0293 40.8741 49.6935 42.0626 51.0214C43.251 52.3493 44.8578 54.1024 47.8925 54.1024C50.9272 54.1024 52.4806 52.396 53.7224 51.0214C54.9642 49.6468 55.595 49.0293 57.0957 49.0293C58.0127 49.0293 58.7557 48.2859 58.7557 47.3693C58.7557 46.4527 58.0127 45.7093 57.0957 45.7093H57.0893Z" fill="#858585"/>
<path d="M57.0893 57.3435C54.0545 57.3435 52.5011 59.0499 51.2593 60.4245C50.0175 61.7992 49.3867 62.4166 47.8861 62.4166C46.3855 62.4166 45.7013 61.7524 44.5129 60.4245C43.3244 59.0966 41.7177 57.3435 38.6829 57.3435C35.6482 57.3435 34.1012 59.0499 32.853 60.4245C31.6053 61.7987 30.9874 62.4161 29.5002 62.4161C28.0129 62.4161 27.3154 61.7519 26.1338 60.424C24.9518 59.0961 23.3386 57.343 20.3039 57.343C17.2692 57.343 15.7222 59.0494 14.474 60.424C13.2258 61.7987 12.6014 62.4161 11.1076 62.4161C9.61338 62.4161 8.91594 61.7524 7.73438 60.4245C6.55236 59.0961 4.93218 57.3435 1.91098 57.3435C0.99436 57.3435 0.250977 58.0864 0.250977 59.0035C0.250977 59.9201 0.99436 60.6635 1.91098 60.6635C3.40521 60.6635 4.08878 61.3277 5.27734 62.6556C6.46578 63.9835 8.06614 65.7361 11.1007 65.7361C14.1353 65.7361 15.6825 64.0298 16.9307 62.6552C18.1789 61.2804 18.8033 60.663 20.297 60.663C21.7913 60.663 22.4818 61.3272 23.6634 62.6552C24.8454 63.9835 26.4591 65.7361 29.5003 65.7361C32.5415 65.7361 34.082 64.0298 35.3302 62.6552C36.5784 61.2804 37.2028 60.663 38.6966 60.663C40.1908 60.663 40.8814 61.3272 42.0698 62.6552C43.2583 63.9835 44.8521 65.7361 47.8932 65.7361C50.9343 65.7361 52.4813 64.0298 53.7231 62.6552C54.9649 61.2804 55.5957 60.663 57.0964 60.663L57.0959 60.6635C58.013 60.6635 58.7559 59.9201 58.7559 59.0035C58.7559 58.0864 58.013 57.3435 57.0959 57.3435L57.0893 57.3435Z" fill="#858585"/>
<path d="M23.7695 3.98424C24.3137 3.98192 24.8473 4.13338 25.3085 4.42147C25.7703 4.7091 26.1413 5.12132 26.3789 5.61086C26.7823 6.43391 27.7768 6.77434 28.5998 6.37093C28.9953 6.17733 29.2978 5.83458 29.44 5.41818C29.5826 5.00133 29.5539 4.54557 29.3603 4.15006C28.5308 2.45164 26.9745 1.22194 25.1301 0.808719C23.2858 0.395106 21.3534 0.842993 19.8783 2.02502C18.4035 3.20704 17.5457 4.99536 17.5476 6.8855V39.7001C17.5476 40.6168 18.291 41.3601 19.2076 41.3601C20.1247 41.3601 20.8676 40.6168 20.8676 39.7001V35.8554H39.1276V39.7201C39.1276 40.6367 39.871 41.3801 40.7876 41.3801C41.7047 41.3801 42.4476 40.6367 42.4476 39.7201V6.88527C42.4499 6.00617 42.8506 5.1757 43.5374 4.62684C44.2239 4.07752 45.1224 3.86956 45.9806 4.06085C46.8384 4.25214 47.5638 4.82184 47.9523 5.61058C48.3558 6.43363 49.3502 6.77406 50.1732 6.37064C50.5687 6.17704 50.8707 5.8343 51.0134 5.4179C51.156 5.00105 51.1273 4.54528 50.9337 4.14978C50.1014 2.45646 48.546 1.23185 46.7045 0.821003C44.863 0.409702 42.9343 0.856666 41.4614 2.03589C39.9885 3.21465 39.1298 4.99875 39.1274 6.88522V13.0672H20.8674V6.88522C20.8674 6.11589 21.1731 5.37758 21.7173 4.83382C22.2616 4.2896 22.9993 3.9839 23.7692 3.9839L23.7695 3.98424ZM20.8677 32.5362V26.1154H39.1277V32.5362H20.8677ZM39.1277 16.388V22.7955H20.8677V16.388H39.1277Z" fill="#858585"/>
</svg>
