<svg width="60" height="60" viewBox="0 0 60 60" fill="none" xmlns="http://www.w3.org/2000/svg">
<path d="M58.0769 0H1.92308C0.861374 0 0 0.861374 0 1.92308V58.0769C0 59.1386 0.861374 60 1.92308 60H58.0769C59.1386 60 60 59.1386 60 58.0769V1.92308C60 0.861374 59.1386 0 58.0769 0ZM56.1538 28.0769H48.7176C47.6559 28.0769 46.7945 28.9376 46.7945 30C46.7945 32.6286 45.32 33.5901 44.1024 33.5901C42.6923 33.5901 41.2822 32.5005 41.2822 30C41.2822 28.9376 40.4209 28.0769 39.3592 28.0769H31.9229V20.6407C31.9229 19.579 31.0622 18.7176 29.9998 18.7176C27.5637 18.7176 26.7302 17.2431 26.7302 15.961C26.7302 14.6789 27.5637 13.2044 29.9998 13.2044V13.2051C31.0622 13.2051 31.9229 12.3437 31.9229 11.282V3.84577H56.1537L56.1538 28.0769ZM3.84615 3.84615H28.0769V9.55165C26.3849 9.92224 24.9055 10.9432 23.959 12.3941C23.0117 13.8443 22.6719 15.6093 23.0132 17.3077C23.2707 18.554 23.8874 19.698 24.7874 20.5973C25.6875 21.4973 26.8307 22.114 28.077 22.3722V28.077H22.4358C22.0194 26.1017 20.7152 24.4283 18.9008 23.5426C17.0865 22.6562 14.9653 22.6562 13.1508 23.5426C11.3365 24.4283 10.0323 26.1017 9.61509 28.077H3.91033V3.84623L3.84615 3.84615ZM3.84615 31.9231H11.2824C12.3441 31.9231 13.2055 31.0624 13.2055 30C13.2055 27.5639 14.68 26.7304 15.9621 26.7304C17.2442 26.7304 18.7187 27.5639 18.7187 30H18.718C18.718 31.0624 19.5793 31.9231 20.641 31.9231H28.0773V37.6278C26.3853 37.9991 24.9059 39.0201 23.9594 40.4709C23.0121 41.9211 22.6723 43.6861 23.0136 45.3844C23.2711 46.6307 23.8878 47.774 24.7878 48.674C25.6878 49.574 26.831 50.1907 28.0774 50.4483V56.153L3.84661 56.1537L3.84615 31.9231ZM31.9231 56.1538V48.7176C31.9231 47.6559 31.0624 46.7945 30 46.7945C27.5639 46.7945 26.7304 45.32 26.7304 44.0379C26.7304 42.7558 27.5639 41.2813 30 41.2813V41.282C31.0624 41.282 31.9231 40.4207 31.9231 39.359V31.9227H37.6278C37.8782 33.2584 38.5264 34.4875 39.4872 35.4483C40.6877 36.7161 42.356 37.4352 44.1024 37.4359C46.9225 37.4359 49.7436 35.5773 50.4482 31.9227H56.1529V56.1535L31.9231 56.1538Z" fill="#858585"/>
</svg>
