<svg width="65" height="60" viewBox="0 0 65 60" fill="none" xmlns="http://www.w3.org/2000/svg">
<path d="M63.1767 35.512C63.6418 35.512 64.0401 35.1137 64.0401 34.6487V32.1253C64.0401 31.6603 63.6417 31.262 63.1767 31.262L51.955 31.2625V1.58167C51.955 1.11664 51.5567 0.718323 51.0917 0.718323H13.9077C13.4426 0.718323 13.0443 1.11665 13.0443 1.58167V31.2625H1.82306C1.35803 31.2625 0.959717 31.6608 0.959717 32.1258V34.6491C0.959717 35.1142 1.35805 35.5125 1.82306 35.5125H4.54558V55.4325L1.82306 55.432C1.35803 55.432 0.959717 55.8303 0.959717 56.2954V58.8187C0.959717 59.2837 1.35805 59.682 1.82306 59.682H63.2431C63.7081 59.682 64.1064 59.2837 64.1064 58.8187V56.2954C64.1064 55.8303 63.7081 55.432 63.2431 55.432H60.5206V35.512H63.1767ZM21.7431 35.512V55.432H17.2943V35.512H21.7431ZM25.9927 35.512H30.4415V55.432H25.9927V35.512ZM34.6248 35.512H39.0736V55.432H34.6248V35.512ZM43.2565 35.512H47.7053V55.432H43.2565V35.512ZM47.7719 31.3287H33.8943V4.96789H47.7719V31.3287ZM17.2279 4.96789H31.1055V31.2623H17.2279V4.96789ZM8.72871 35.5119H13.1775V55.4319H8.72871V35.5119ZM56.2711 55.4319H51.8223V35.5119H56.2711V55.4319Z" fill="#858585"/>
<path d="M22.3408 8.4208C22.7391 8.02247 22.7391 7.42499 22.3408 7.02616C21.9425 6.62783 21.345 6.62783 20.9462 7.02616L19.3525 8.61988C18.9541 9.01821 18.9541 9.61569 19.3525 10.0145C19.5516 10.2137 19.8175 10.2799 20.0829 10.2799C20.3483 10.2799 20.6141 10.2137 20.8133 10.0145L22.3408 8.4208Z" fill="#858585"/>
<path d="M26.4575 8.22172C26.0591 7.82339 25.4617 7.82339 25.0628 8.22172L20.4811 12.8034C20.0828 13.2018 20.0828 13.7993 20.4811 14.1981C20.6803 14.3972 20.9461 14.4635 21.2115 14.4635C21.4769 14.4635 21.7428 14.3972 21.942 14.1981L26.5237 9.61636C26.7895 9.21757 26.7895 8.55385 26.4574 8.22172H26.4575Z" fill="#858585"/>
</svg>
