<svg width="87" height="87" viewBox="0 0 87 87" fill="none" xmlns="http://www.w3.org/2000/svg">
<circle cx="43.5" cy="43.5" r="43.5" fill="#FFCBC5"/>
<path d="M60.9262 29.4684C60.9262 29.8435 61.2301 30.1473 61.6051 30.1473C61.9802 30.1473 62.2841 29.8434 62.2841 29.4684C62.2841 26.8478 60.1519 24.7158 57.5315 24.7158C57.1564 24.7158 56.8525 25.0197 56.8525 25.3947C56.8525 25.7698 57.1565 26.0737 57.5315 26.0737C59.4033 26.0737 60.9262 27.5966 60.9262 29.4684Z" fill="#FF5744"/>
<path d="M52.5524 39.6526C52.9274 39.6526 53.2313 39.3488 53.2313 38.9737C53.2313 38.5986 52.9274 38.2948 52.5524 38.2948C50.93 38.2948 49.6102 36.9749 49.6102 35.3526C49.6102 33.7303 50.93 32.4105 52.5524 32.4105C54.1747 32.4105 55.4945 33.7303 55.4945 35.3526C55.4945 36.1962 55.1314 37.0006 54.4983 37.5594C54.2172 37.8074 54.1904 38.2365 54.4386 38.5177C54.6867 38.7989 55.1157 38.8255 55.3969 38.5774C56.322 37.7611 56.8524 36.5857 56.8524 35.3526C56.8524 32.9816 54.9234 31.0526 52.5524 31.0526C50.1815 31.0526 48.2524 32.9816 48.2524 35.3526C48.2524 37.7236 50.1814 39.6526 52.5524 39.6526Z" fill="#FF5744"/>
<path d="M33.5421 63.6421H26.3C24.6778 63.6421 23.3579 62.3223 23.3579 60.7V56.8526H31.7315C32.1065 56.8526 32.4105 56.5487 32.4105 56.1737C32.4105 55.7986 32.1064 55.4947 31.7315 55.4947H23.3579V46.2158C23.3579 45.1424 23.6248 44.0744 24.1299 43.1272L30.3284 31.5053H34.5605C34.9355 31.5053 35.2395 31.2014 35.2395 30.8263C35.2395 30.4513 34.9354 30.1474 34.5605 30.1474H30.6V26.3C30.6 24.6777 31.9199 23.3579 33.5421 23.3579H46.4421V24.85L40.5939 26.1497C39.2401 26.4505 38.2948 27.6291 38.2948 29.0157V30.1473H37.1406C36.7656 30.1473 36.4617 30.4512 36.4617 30.8263C36.4617 31.2013 36.7657 31.5052 37.1406 31.5052H38.5664L40.306 34.7667C40.4282 34.9958 40.6629 35.1263 40.9056 35.1263C41.0135 35.1263 41.1228 35.1006 41.2245 35.0462C41.5554 34.8698 41.6806 34.4585 41.5041 34.1278L39.6528 30.6564V29.0158C39.6528 28.2705 40.1609 27.637 40.8885 27.4752L47.2685 26.0575C47.5791 25.9885 47.8001 25.713 47.8001 25.3947V22.6789C47.8001 22.3039 47.4962 22 47.1212 22H33.5421C31.1712 22 29.2421 23.929 29.2421 26.3V30.6566L22.9319 42.4882C22.3222 43.6314 22 44.9203 22 46.2158V60.7C22 63.071 23.929 65 26.3 65H33.5421C33.9171 65 34.2211 64.6961 34.2211 64.3211C34.2211 63.946 33.917 63.6421 33.5421 63.6421Z" fill="#FF5744"/>
<path d="M50.7419 30.1474C51.117 30.1474 51.4208 29.8435 51.4208 29.4685C51.4208 26.0991 54.162 23.3579 57.5314 23.3579C60.9008 23.3579 63.6419 26.0991 63.6419 29.4685C63.6419 32.3634 61.5863 34.8819 58.7542 35.4568C58.3867 35.5313 58.1493 35.8897 58.224 36.2573C58.2893 36.5792 58.5725 36.8012 58.8887 36.8012C58.9333 36.8012 58.9789 36.7968 59.0245 36.7875C62.4867 36.0846 64.9998 33.0066 64.9998 29.4684C64.9998 25.3504 61.6494 22 57.5314 22C53.4134 22 50.063 25.3504 50.063 29.4684C50.0629 29.8435 50.3668 30.1474 50.7419 30.1474Z" fill="#FF5744"/>
<path d="M58.8894 46.4422C57.7663 46.4422 56.8525 45.5284 56.8525 44.4053C56.8525 44.0302 56.5486 43.7264 56.1736 43.7264C55.7985 43.7264 55.4946 44.0302 55.4946 44.4053C55.4946 46.2772 57.0174 47.8 58.8894 47.8C60.7613 47.8 62.2841 46.2772 62.2841 44.4053C62.2841 42.5334 60.7613 41.0106 58.8894 41.0106C58.0528 41.0106 57.2491 41.3176 56.626 41.8751C56.3466 42.1252 56.3228 42.5544 56.5728 42.8339C56.8228 43.1132 57.252 43.137 57.5316 42.887C57.9051 42.5526 58.3873 42.3685 58.8893 42.3685C60.0123 42.3685 60.9261 43.2823 60.9261 44.4054C60.9262 45.5283 60.0124 46.4422 58.8894 46.4422Z" fill="#FF5744"/>
<path d="M59.5683 58.8895C59.5683 57.5168 58.4515 56.4 57.0788 56.4C55.7062 56.4 54.5894 57.5168 54.5894 58.8895C54.5894 60.2621 55.7062 61.379 57.0788 61.379C58.4515 61.379 59.5683 60.2621 59.5683 58.8895ZM55.9473 58.8895C55.9473 58.2655 56.4549 57.7579 57.0789 57.7579C57.7029 57.7579 58.2105 58.2655 58.2105 58.8895C58.2105 59.5135 57.7029 60.0211 57.0789 60.0211C56.4549 60.0211 55.9473 59.5135 55.9473 58.8895Z" fill="#FF5744"/>
<path d="M46.4424 58.8895C46.4424 60.2621 47.5592 61.379 48.9318 61.379C50.3045 61.379 51.4213 60.2621 51.4213 58.8895C51.4213 57.5168 50.3045 56.4 48.9318 56.4C47.5592 56.4 46.4424 57.5168 46.4424 58.8895ZM50.0634 58.8895C50.0634 59.5135 49.5558 60.0211 48.9318 60.0211C48.3078 60.0211 47.8002 59.5135 47.8002 58.8895C47.8002 58.2655 48.3078 57.7579 48.9318 57.7579C49.5558 57.7579 50.0634 58.2655 50.0634 58.8895Z" fill="#FF5744"/>
<path d="M39.2002 55.2684C39.2002 56.641 40.3169 57.7579 41.6897 57.7579C43.0624 57.7579 44.1791 56.641 44.1791 55.2684C44.1791 53.8958 43.0624 52.7789 41.6897 52.7789C40.3169 52.7789 39.2002 53.8958 39.2002 55.2684ZM42.8213 55.2684C42.8213 55.8924 42.3137 56.4 41.6897 56.4C41.0657 56.4 40.5581 55.8924 40.5581 55.2684C40.5581 54.6444 41.0657 54.1368 41.6897 54.1368C42.3137 54.1369 42.8213 54.6444 42.8213 55.2684Z" fill="#FF5744"/>
<path d="M62.5107 50.9684C62.4854 50.9684 62.4604 50.9695 62.4353 50.9703C61.6825 50.3842 60.7552 50.0631 59.7949 50.0631H53.5664C53.1095 49.5106 52.419 49.1578 51.6476 49.1578C50.8762 49.1578 50.1857 49.5105 49.7287 50.0631H38.9738C36.6029 50.0631 34.6738 51.9921 34.6738 54.3631V58.781C34.1213 59.238 33.7686 59.9285 33.7686 60.6999C33.7686 61.754 34.4274 62.6566 35.3548 63.019C36.1423 64.245 37.5101 65 38.9738 65H53.458C53.8331 65 54.1369 64.6961 54.1369 64.321C54.1369 63.946 53.833 63.6421 53.458 63.6421H38.9738C38.31 63.6421 37.6749 63.4149 37.1648 63.0178C38.0902 62.6544 38.7475 61.7527 38.7475 60.7001C38.7475 59.3274 37.6307 58.2106 36.258 58.2106C36.1817 58.2106 36.1063 58.2146 36.0317 58.2213V54.3632C36.0317 52.7409 37.3516 51.421 38.9738 51.421H49.1688C49.162 51.4956 49.158 51.571 49.158 51.6474C49.158 53.02 50.2748 54.1369 51.6475 54.1369C53.0201 54.1369 54.1369 53.02 54.1369 51.6474C54.1369 51.571 54.133 51.4956 54.1262 51.421H59.7949C60.1557 51.421 60.5098 51.4872 60.8409 51.6131C60.3378 52.0689 60.0212 52.7272 60.0212 53.4578C60.0212 54.8305 61.1381 55.9473 62.5107 55.9473C62.587 55.9473 62.6625 55.9433 62.737 55.9366V60.7C62.737 62.3223 61.4172 63.6421 59.7949 63.6421H56.1738C55.7987 63.6421 55.4949 63.9461 55.4949 64.321C55.4949 64.6961 55.7987 65 56.1738 65H59.7949C62.1659 65 64.0949 63.0709 64.0949 60.7V55.3768C64.6474 54.9198 65.0002 54.2293 65.0002 53.4579C65.0002 52.0852 63.8833 50.9684 62.5107 50.9684ZM36.258 59.5684C36.882 59.5684 37.3896 60.076 37.3896 60.7C37.3896 61.324 36.882 61.8316 36.258 61.8316C35.634 61.8316 35.1264 61.324 35.1264 60.7C35.1264 60.076 35.634 59.5684 36.258 59.5684ZM51.6475 52.7789C51.0235 52.7789 50.5159 52.2713 50.5159 51.6473C50.5159 51.0233 51.0235 50.5157 51.6475 50.5157C52.2715 50.5157 52.7791 51.0233 52.7791 51.6473C52.7791 52.2713 52.2715 52.7789 51.6475 52.7789ZM62.5107 54.5894C61.8867 54.5894 61.3791 54.0818 61.3791 53.4578C61.3791 52.8338 61.8867 52.3262 62.5107 52.3262C63.1347 52.3262 63.6423 52.8338 63.6423 53.4578C63.6423 54.0818 63.1347 54.5894 62.5107 54.5894Z" fill="#FF5744"/>
<path d="M46.2158 48.7958C46.5909 48.7958 46.8948 48.4919 46.8948 48.1169V46.2158C46.8948 44.9203 46.5725 43.6313 45.9628 42.4882L42.7079 36.3853C42.5314 36.0544 42.12 35.9295 41.7893 36.1058C41.4585 36.2822 41.3333 36.6935 41.5098 37.0242L44.7648 43.1271C45.0185 43.6029 45.2121 44.1093 45.3421 44.6314H27.2053C26.8303 44.6314 26.5264 44.9353 26.5264 45.3104C26.5264 45.6854 26.8304 45.9893 27.2053 45.9893H45.5326C45.5352 46.0647 45.5369 46.1401 45.5369 46.2156V48.1167C45.5369 48.4919 45.8408 48.7958 46.2158 48.7958Z" fill="#FF5744"/>
</svg>
