<svg width="350" height="253" viewBox="0 0 350 253" fill="none" xmlns="http://www.w3.org/2000/svg">
<path d="M216.37 61.575C220.237 61.575 223.37 58.4383 223.37 54.575C223.37 50.7117 220.237 47.575 216.37 47.575C194.468 47.575 176.646 29.7565 176.646 7.85449C176.646 3.99119 173.513 0.854492 169.646 0.854492C165.778 0.854492 162.646 3.99119 162.646 7.85449C162.646 29.757 144.831 47.575 122.927 47.575C119.059 47.575 115.927 50.7117 115.927 54.575C115.927 58.4383 119.059 61.575 122.927 61.575C138.669 61.575 152.81 54.7255 162.646 43.8975V67.376C162.646 89.2785 144.831 107.096 122.927 107.096C119.059 107.096 115.927 110.233 115.927 114.096C115.927 117.96 119.059 121.096 122.927 121.096C138.669 121.096 152.81 114.247 162.646 103.419V126.897C162.646 148.8 144.831 166.622 122.927 166.622C119.059 166.622 115.927 169.755 115.927 173.622C115.927 177.489 119.059 180.622 122.927 180.622C138.669 180.622 152.81 173.768 162.646 162.94V225.465C162.646 229.333 165.778 232.465 169.646 232.465C173.513 232.465 176.646 229.333 176.646 225.465V162.935C186.482 173.763 200.624 180.617 216.37 180.617C220.237 180.617 223.37 177.484 223.37 173.617C223.37 169.75 220.237 166.617 216.37 166.617C194.468 166.617 176.646 148.794 176.646 126.892V103.41C186.482 114.238 200.624 121.091 216.37 121.091C220.237 121.091 223.37 117.955 223.37 114.091C223.37 110.228 220.237 107.091 216.37 107.091C194.468 107.091 176.646 89.273 176.646 67.371V43.8885C186.486 54.7225 200.624 61.576 216.37 61.576V61.575Z" fill="#0A5622"/>
<path d="M343 140.93C346.867 140.93 350 137.797 350 133.93C350 130.063 346.867 126.93 343 126.93C321.098 126.93 303.276 109.107 303.276 87.2055V63.723C313.112 74.551 327.254 81.4045 343 81.4045C346.867 81.4045 350 78.2678 350 74.4045C350 70.5412 346.867 67.4045 343 67.4045C321.098 67.4045 303.276 49.586 303.276 27.684C303.276 23.8207 300.143 20.684 296.276 20.684C292.408 20.684 289.276 23.8207 289.276 27.684C289.276 49.5865 271.461 67.4045 249.557 67.4045C245.689 67.4045 242.557 70.5412 242.557 74.4045C242.557 78.2678 245.689 81.4045 249.557 81.4045C265.299 81.4045 279.44 74.555 289.276 63.727V87.2055C289.276 109.108 271.461 126.93 249.557 126.93C245.689 126.93 242.557 130.063 242.557 133.93C242.557 137.797 245.689 140.93 249.557 140.93C265.299 140.93 279.44 134.08 289.276 123.252V146.731C289.276 168.633 271.461 186.455 249.557 186.455C245.689 186.455 242.557 189.588 242.557 193.455C242.557 197.323 245.689 200.455 249.557 200.455C265.299 200.455 279.44 193.602 289.276 182.774V245.294C289.276 249.161 292.408 252.294 296.276 252.294C300.143 252.294 303.276 249.161 303.276 245.294V182.774C313.112 193.602 327.254 200.455 343 200.455C346.867 200.455 350 197.323 350 193.455C350 189.588 346.867 186.455 343 186.455C321.098 186.455 303.276 168.633 303.276 146.731V123.252C313.114 134.084 327.254 140.934 343 140.934V140.93Z" fill="#0A5622"/>
<path d="M100.44 81.405C104.307 81.405 107.44 78.2683 107.44 74.405C107.44 70.5417 104.307 67.405 100.44 67.405C78.5396 67.405 60.7211 49.5865 60.7211 27.6845C60.7211 23.8212 57.5844 20.6845 53.7211 20.6845C49.8578 20.6845 46.7211 23.8212 46.7211 27.6845C46.7211 49.587 28.8986 67.405 6.99658 67.405C3.13328 67.405 -0.00341797 70.5417 -0.00341797 74.405C-0.00341797 78.2683 3.13328 81.405 6.99658 81.405C22.7426 81.405 36.8871 74.5515 46.7211 63.7235V87.206C46.7211 109.109 28.8986 126.931 6.99658 126.931C3.13328 126.931 -0.00341797 130.063 -0.00341797 133.931C-0.00341797 137.798 3.13328 140.931 6.99658 140.931C22.7426 140.931 36.8871 134.077 46.7211 123.249V146.728C46.7211 168.63 28.8986 186.452 6.99658 186.452C3.13328 186.452 -0.00341797 189.585 -0.00341797 193.452C-0.00341797 197.319 3.13328 200.452 6.99658 200.452C22.7426 200.452 36.8871 193.599 46.7211 182.771V245.291C46.7211 249.158 49.8578 252.291 53.7211 252.291C57.5844 252.291 60.7211 249.158 60.7211 245.291V182.771C70.5571 193.599 84.6916 200.452 100.44 200.452C104.307 200.452 107.44 197.319 107.44 193.452C107.44 189.585 104.307 186.452 100.44 186.452C78.5396 186.452 60.7211 168.63 60.7211 146.728V123.251C70.5571 134.079 84.6916 140.929 100.44 140.929C104.307 140.929 107.44 137.796 107.44 133.929C107.44 130.061 104.307 126.929 100.44 126.929C78.5396 126.929 60.7211 109.106 60.7211 87.204V63.7255C70.5571 74.5555 84.6976 81.407 100.44 81.407V81.405Z" fill="#0A5622"/>
</svg>
