<svg width="79" height="79" viewBox="0 0 79 79" fill="none" xmlns="http://www.w3.org/2000/svg">
<path d="M38.2361 48.4112L38.8683 48.4742H40.7644V48.4112C45.3779 48.0951 48.9805 44.2399 48.9805 39.6264V9.9224H47.0844C43.8613 9.9224 41.017 11.6289 39.5005 14.2198C37.9836 11.6285 35.1396 9.9224 31.9166 9.9224H30.0205V39.5632C30.0201 44.2398 33.6227 48.095 38.2362 48.411L38.2361 48.4112ZM40.7639 45.883V42.7861C40.7639 40.1948 43.2287 38.0461 46.4516 37.5405V39.5631C46.4521 42.8496 43.9239 45.5674 40.7639 45.8831V45.883ZM40.7639 34.5702C40.7639 31.9789 43.2287 29.8302 46.4516 29.3246V35.0124C44.2394 35.265 42.2172 36.1497 40.7639 37.4771V34.5702ZM40.7639 29.2615V26.3541C40.7639 23.7628 43.2287 21.6141 46.4516 21.1085V26.7962C44.2399 27.0493 42.2172 27.9341 40.7639 29.2615ZM38.2361 29.2615C36.7826 27.9341 34.76 27.0493 32.5483 26.7967V21.1089C35.7714 21.5515 38.2361 23.7002 38.2361 26.3545V29.2615ZM38.2361 34.5702V37.4776C36.7826 36.1502 34.76 35.2654 32.5483 35.0128V29.325C35.7714 29.8302 38.2361 31.979 38.2361 34.5703V34.5702ZM46.4522 12.5134V18.6438C44.24 18.8964 42.2178 19.7811 40.7644 21.1086V18.8334C40.764 15.4838 43.2922 12.8295 46.4522 12.5134ZM38.2361 18.7703V21.0455C36.7826 19.7181 34.76 18.8333 32.5483 18.5807V12.4503C35.7079 12.8294 38.2361 15.4838 38.2361 18.7703ZM32.5479 37.5407C35.771 37.9833 38.2356 40.132 38.2356 42.7863V45.8832C35.0756 45.5671 32.5479 42.8497 32.5479 39.5632V37.5407Z" fill="#858585"/>
<path d="M17.1904 47.8424L18.1382 47.9054H19.6548V47.8424C24.0787 47.3367 27.5548 43.608 27.5548 39.0576V19.0864H25.9748C22.7517 19.0864 19.9073 20.7929 18.3909 23.3838C16.874 20.7925 14.03 19.0864 10.807 19.0864H9.35352V39.0576C9.35352 43.5446 12.7665 47.3367 17.1904 47.8424H17.1904ZM19.7182 45.2511V42.4072C19.7182 39.9424 22.0564 37.9198 25.0904 37.4776V39.0576C25.0904 42.1542 22.7521 44.8085 19.7182 45.2511ZM19.7182 34.5072C19.7182 32.0424 22.0564 30.0198 25.0904 29.5776V34.9498C23.0048 35.2024 21.1087 36.0242 19.7182 37.225V34.5072ZM17.1904 37.1616C15.8 35.9607 13.9039 35.139 11.8182 34.8864V29.5142C14.8516 29.9568 17.1904 32.0419 17.1904 34.4438V37.1616ZM25.0904 21.6776V27.0498C23.0048 27.3024 21.1087 28.1242 19.7182 29.325V27.9346C19.7182 24.7746 22.0569 22.1202 25.0904 21.6777V21.6776ZM17.1904 27.9345V29.3249C15.8 28.124 13.9039 27.3023 11.8182 27.0497V21.6775C14.9151 22.1201 17.1904 24.7744 17.1904 27.9344V27.9345ZM11.8817 37.4776C14.9152 37.9202 17.2539 40.0054 17.2539 42.4072V45.2511C14.2204 44.8085 11.8817 42.1542 11.8817 38.9942V37.4776Z" fill="#858585"/>
<path d="M59.2817 47.8424L60.2296 47.9054H61.7461V47.8424C66.17 47.3367 69.6461 43.608 69.6461 39.0576V19.0864H68.0661C64.843 19.0864 61.9987 20.7929 60.4822 23.3838C58.9653 20.7925 56.1213 19.0864 52.8984 19.0864H51.3184V39.0576C51.3818 43.5446 54.8574 47.3367 59.2818 47.8424H59.2817ZM61.8095 45.2511V42.4072C61.8095 39.9424 64.1478 37.9198 67.1817 37.4776V39.0576C67.1183 42.1542 64.843 44.8085 61.8095 45.2511ZM61.8095 34.5072C61.8095 32.0424 64.1478 30.0198 67.1817 29.5776V34.9498C65.0961 35.2024 63.2 36.0242 61.8095 37.225V34.5072ZM59.2817 37.1616C57.8913 35.9607 55.9952 35.139 53.9095 34.8864V29.5142C56.943 29.9568 59.2817 32.0419 59.2817 34.4438V37.1616ZM67.1183 21.6776V27.0498C65.0327 27.3024 63.1366 28.1242 61.7461 29.325V27.9346C61.8096 24.7746 64.0848 22.1202 67.1183 21.6777V21.6776ZM59.2817 27.9345V29.3249C57.8913 28.124 55.9952 27.3023 53.9095 27.0497V21.6775C56.943 22.1201 59.2817 24.7744 59.2817 27.9344V27.9345ZM53.9095 37.4776C56.943 37.9202 59.2817 40.0054 59.2817 42.4072V45.2511C56.2483 44.8085 53.9095 42.1542 53.9095 38.9942V37.4776Z" fill="#858585"/>
<path d="M59.2817 10.1752H61.8095V18.7704H59.2817V10.1752Z" fill="#858585"/>
<path d="M52.9617 9.03738H55.4895V17.6326H52.9617V9.03738Z" fill="#858585"/>
<path d="M65.6016 9.03738H68.1293V17.6326H65.6016V9.03738Z" fill="#858585"/>
<path d="M17.5696 10.1752H20.0974V18.7704H17.5696V10.1752Z" fill="#858585"/>
<path d="M11.2498 9.03738H13.7775V17.6326H11.2498V9.03738Z" fill="#858585"/>
<path d="M23.8896 9.03738H26.4174V17.6326H23.8896V9.03738Z" fill="#858585"/>
<path d="M38.4258 1.0113H40.9536V8.65873H38.4258V1.0113Z" fill="#858585"/>
<path d="M32.1057 0H34.6335V7.64743H32.1057V0Z" fill="#858585"/>
<path d="M44.7456 0H47.2734V7.64743H44.7456V0Z" fill="#858585"/>
<path d="M63.9585 55.9952C62.9472 55.9952 62.0624 56.1848 61.1776 56.5639L61.7463 50.623L59.2185 50.3704L58.5233 57.8913C56.7537 54.4787 53.151 52.14 49.0433 52.14C45.6937 52.14 42.7233 53.6569 40.7642 56.0583V50.56H38.2364V56.2478C36.2773 53.783 33.2438 52.203 29.8938 52.203C25.849 52.203 22.2463 54.4782 20.4769 57.8278L19.7816 50.3704L17.2539 50.623L17.8226 56.6269C16.9378 56.2477 15.99 55.9947 14.9787 55.9947C11.25 55.9947 8.15308 59.0282 8.15308 62.8203H70.7843C70.7843 59.0921 67.7508 55.995 63.9587 55.995L63.9585 55.9952Z" fill="#858585"/>
</svg>
