<svg width="53" height="81" viewBox="0 0 53 81" fill="none" xmlns="http://www.w3.org/2000/svg">
<path d="M6.69254 16.6183C4.404 12.5476 3.87434 8.51821 5.71061 5.23444C9.78567 -2.05584 23.1796 -1.49102 35.7837 5.4372C47.054 11.6317 54.307 21.0533 52.8032 28.1912V66.7196C52.8032 75.0546 40.8127 81 26.4016 81C11.9904 81 0 75.0546 0 66.7196V26.2586C0 22.4646 2.49185 19.1242 6.69274 16.6195L6.69254 16.6183ZM4.80029 26.2575C4.80029 31.0665 14.3013 35.7775 26.4021 35.7775C29.0915 35.7775 31.6866 35.5438 34.0924 35.116C30.1404 34.2626 25.9273 32.6743 21.8206 30.417C16.8041 27.6596 12.4969 24.2006 9.43916 20.5372C6.40213 22.2745 4.80103 24.3318 4.80103 26.2575L4.80029 26.2575ZM4.80029 66.7184C4.80029 71.528 14.3013 76.2385 26.4021 76.2385C38.5024 76.2385 48.004 71.528 48.004 66.7184V34.63C43.1971 38.294 35.2568 40.5382 26.4021 40.5382C17.5474 40.5382 9.60891 38.294 4.80029 34.63V66.7184ZM24.1472 26.2531C34.7306 32.0707 45.3439 32.5181 47.6949 28.3116C50.0463 24.1051 44.0392 15.4173 33.4564 9.60019C22.873 3.7831 12.2597 3.33573 9.90864 7.54224C7.55756 11.7488 13.5643 20.436 24.1472 26.2531ZM36.6147 52.4294C37.9004 52.1081 39.2053 52.8802 39.5293 54.1546C39.8539 55.4296 39.0747 56.7236 37.7895 57.0448C34.2737 57.9252 30.3996 58.3874 26.4014 58.3874C22.4032 58.3874 18.5293 57.9252 15.0133 57.0448C13.7281 56.7235 12.9489 55.4296 13.2735 54.1546C13.5981 52.8802 14.903 52.1081 16.1881 52.4294C19.3141 53.2118 22.793 53.6271 26.4013 53.6271C30.0095 53.6271 33.4894 53.2118 36.6147 52.4294Z" fill="#858585"/>
</svg>
