<svg width="87" height="87" viewBox="0 0 87 87" fill="none" xmlns="http://www.w3.org/2000/svg">
<circle cx="43.5" cy="43.5" r="43.5" fill="#B5E1C6"/>
<path d="M35.9 37.05H31.6C30.4124 37.05 29.45 38.0124 29.45 39.2V52.1C29.45 53.2875 30.4124 54.25 31.6 54.25H35.9C37.0875 54.25 38.05 53.2875 38.05 52.1V39.2C38.05 38.0124 37.0875 37.05 35.9 37.05ZM35.9 52.1H31.6V39.2H35.9V52.1Z" fill="#509C6D"/>
<path d="M55.2377 35.6138C54.83 35.1594 54.248 34.9 53.6374 34.9C53.0268 34.9 52.4448 35.1594 52.0371 35.6138C51.807 35.8696 51.42 36.3111 50.9499 36.8665V32.75C50.9499 32.1795 50.7234 31.6328 50.3199 31.23L46.6499 27.5592V24.15C46.6499 22.9625 45.6874 22 44.4999 22H38.0499C36.8624 22 35.8999 22.9625 35.8999 24.15V27.4166L25.9569 35.3708C25.4466 35.7793 25.1499 36.3971 25.1499 37.05V62.85C25.1499 64.0375 26.1124 65 27.2999 65H48.7999C49.9874 65 50.9499 64.0375 50.9499 62.85V60.2958C51.8121 60.5323 52.7015 60.7 53.6374 60.7C59.269 60.7 63.8499 56.1183 63.8499 50.4875C63.8499 45.4658 56.676 37.217 55.2377 35.6138ZM38.0499 24.15H44.4999V26.3H38.0499V24.15ZM48.7999 62.85H27.2999V37.05L38.0499 28.45H44.4999L48.7999 32.75V39.5448C46.3188 42.8085 43.4249 47.2969 43.4249 50.4875C43.4249 54.3597 45.6157 57.6943 48.7999 59.425V62.85ZM53.6374 58.55C49.1847 58.55 45.5749 54.9402 45.5749 50.4875C45.5749 46.0348 53.6374 37.05 53.6374 37.05C53.6374 37.05 61.6999 46.0348 61.6999 50.4875C61.6999 54.9402 58.0901 58.55 53.6374 58.55Z" fill="#509C6D"/>
</svg>
